<?xml version="1.0" encoding="UTF-8"?>
<svg version="1.1" xmlns="http://www.w3.org/2000/svg" width="256" height="256">
<path d="M0 0 C3.68063135 2.44474368 5.3651427 4.96154885 6.66210938 9.10400391 C8.17851875 17.99883974 4.5408998 24.68309566 0.53710938 32.41650391 C-0.61236246 34.7037448 -1.76080302 36.99150427 -2.90820312 39.27978516 C-3.47313477 40.4020752 -4.03806641 41.52436523 -4.62011719 42.68066406 C-5.18698242 43.81036621 -5.75384766 44.94006836 -6.33789062 46.10400391 C-6.63610718 46.69308533 -6.93432373 47.28216675 -7.24157715 47.88909912 C-8.11889709 49.63451721 -8.97479563 51.3906508 -9.83007812 53.14697266 C-10.58973877 54.68454224 -10.58973877 54.68454224 -11.36474609 56.25317383 C-12.45028545 59.43326493 -12.39134466 60.94943564 -11.33789062 64.10400391 C-9.77137656 66.29031791 -9.77137656 66.29031791 -7.77539062 68.41650391 C9.43547378 89.2116776 10.93399255 115.25393139 9.66210938 141.10400391 C9.05614763 146.7271318 7.65004327 151.80078895 5.66210938 157.10400391 C5.22640625 158.30412109 4.79070312 159.50423828 4.34179688 160.74072266 C-5.01942288 184.39954308 -23.33994709 202.05591755 -46.33789062 212.41650391 C-59.15719118 217.66400402 -72.0405118 219.25517613 -85.77148438 219.27197266 C-86.73063248 219.27530106 -87.68978058 219.27862946 -88.67799377 219.28205872 C-90.68726119 219.28708683 -92.69653684 219.28946833 -94.70581055 219.28930664 C-97.79098879 219.29151507 -100.87582132 219.30977325 -103.9609375 219.32861328 C-105.91861857 219.33154363 -107.87630134 219.33353082 -109.83398438 219.33447266 C-110.7578746 219.34165817 -111.68176483 219.34884369 -112.63365173 219.35624695 C-113.91122093 219.351632 -113.91122093 219.351632 -115.21459961 219.34692383 C-116.33970192 219.34906136 -116.33970192 219.34906136 -117.48753357 219.35124207 C-119.33789063 219.10400391 -119.33789063 219.10400391 -121.33789062 217.10400391 C-121.58789062 214.60400391 -121.58789062 214.60400391 -121.33789062 212.10400391 C-118.8993189 209.66543219 -118.27016448 209.8504962 -114.92675781 209.83276367 C-113.55327179 209.81748375 -113.55327179 209.81748375 -112.15203857 209.80189514 C-111.1563385 209.7997551 -110.16063843 209.79761505 -109.13476562 209.79541016 C-107.01757582 209.77021242 -104.90038838 209.74481506 -102.78320312 209.71923828 C-99.45280806 209.69071294 -96.12245526 209.66670105 -92.79199219 209.64770508 C-75.69707293 209.53116045 -61.02431229 208.5829126 -45.33789062 201.10400391 C-44.43554688 200.68505859 -43.53320312 200.26611328 -42.60351562 199.83447266 C-23.85931109 190.43528339 -10.68701795 173.68753524 -3.62207031 154.12158203 C3.61711968 132.0370485 2.46896864 108.23857227 -7.33789062 87.10400391 C-10.31165911 81.51017508 -13.44831861 76.1133012 -17.33789062 71.10400391 C-22.54710495 80.35783479 -27.14262408 89.83759456 -31.58789062 99.47900391 C-32.14210693 100.675979 -32.69632324 101.8729541 -33.26733398 103.10620117 C-35.51085156 107.95480179 -37.750507 112.80461319 -39.95117188 117.67285156 C-41.47973937 121.05381149 -43.03197823 124.42305987 -44.58789062 127.79150391 C-45.03422852 128.79938965 -45.48056641 129.80727539 -45.94042969 130.84570312 C-50.42065024 140.44918384 -57.41505296 146.53910659 -65.33300781 153.33544922 C-67.49820553 155.24542149 -69.56418278 157.23243241 -71.62695312 159.25244141 C-72.34109375 159.94724609 -73.05523437 160.64205078 -73.79101562 161.35791016 C-75.25466878 162.7873412 -76.71027221 164.22505563 -78.15820312 165.67041016 C-84.90561036 172.18556968 -84.90561036 172.18556968 -90.33789062 172.10400391 C-90.99789062 171.77400391 -91.65789062 171.44400391 -92.33789062 171.10400391 C-95.40345328 170.99662856 -98.44725705 170.94982258 -101.51342773 170.94628906 C-102.94041237 170.93866798 -102.94041237 170.93866798 -104.39622498 170.93089294 C-106.46642568 170.92017574 -108.53663807 170.91156088 -110.60685539 170.90477371 C-113.88018285 170.8930127 -117.1533767 170.87356801 -120.426651 170.85165405 C-129.7348285 170.78993709 -139.04299243 170.73593417 -148.35131836 170.70263672 C-154.04010586 170.68173591 -159.72865029 170.64647047 -165.41729927 170.60187912 C-167.58904733 170.5876829 -169.76083839 170.57898856 -171.93263054 170.57582474 C-174.96633359 170.57093692 -177.99938707 170.5478344 -181.03295898 170.52050781 C-182.38662567 170.52501701 -182.38662567 170.52501701 -183.76763916 170.52961731 C-184.59345993 170.51852432 -185.4192807 170.50743134 -186.27012634 170.4960022 C-187.34611037 170.49103698 -187.34611037 170.49103698 -188.44383144 170.48597145 C-190.91498651 169.98762322 -191.83631147 169.09901306 -193.33789062 167.10400391 C-193.15039062 164.47900391 -193.15039062 164.47900391 -192.33789062 162.10400391 C-188.93267922 160.4013982 -185.04396943 160.9753557 -181.29833984 160.99047852 C-180.36170502 160.99033249 -179.42507019 160.99018646 -178.46005249 160.99003601 C-175.3542044 160.99073447 -172.24841578 160.99852376 -169.14257812 161.00634766 C-166.99309319 161.00821207 -164.84360783 161.00963586 -162.69412231 161.01063538 C-157.02893913 161.01445869 -151.36378148 161.0242874 -145.6986084 161.03533936 C-139.92082057 161.04555747 -134.14302863 161.05013386 -128.36523438 161.05517578 C-117.02277523 161.06590982 -105.68033505 161.08298402 -94.33789062 161.10400391 C-94.26272217 159.48558594 -94.26272217 159.48558594 -94.18603516 157.83447266 C-93.99655491 153.80101485 -93.79644961 149.76814014 -93.59326172 145.73535156 C-93.5070642 143.99558225 -93.42368263 142.2556709 -93.34326172 140.515625 C-93.2266291 138.00298399 -93.09960967 135.49104164 -92.97070312 132.97900391 C-92.93727814 132.21096436 -92.90385315 131.4429248 -92.86941528 130.65161133 C-92.44518843 122.78012015 -90.53031036 116.0473116 -87.18554688 108.86572266 C-86.88474716 108.21827591 -86.58394745 107.57082916 -86.27403259 106.90376282 C-85.64295192 105.55018242 -85.00835691 104.19823529 -84.37036133 102.84790039 C-83.39668672 100.7836514 -82.4379467 98.71291645 -81.48046875 96.64111328 C-80.86220429 95.31973943 -80.24309338 93.99876123 -79.62304688 92.67822266 C-79.06496338 91.48801514 -78.50687988 90.29780762 -77.93188477 89.0715332 C-76.5749918 86.54541374 -75.63193832 84.79219265 -73.33789062 83.10400391 C-68.91683799 83.52505654 -68.91683799 83.52505654 -67.33789062 85.10400391 C-67.75033666 90.01380667 -68.87093903 93.79369956 -71.06054688 98.18603516 C-71.86782227 99.83055664 -71.86782227 99.83055664 -72.69140625 101.50830078 C-73.53735352 103.19536133 -73.53735352 103.19536133 -74.40039062 104.91650391 C-75.51957206 107.17138138 -76.63562891 109.42781333 -77.74804688 111.68603516 C-78.49260132 113.17453979 -78.49260132 113.17453979 -79.25219727 114.69311523 C-80.47476203 116.96726171 -80.47476203 116.96726171 -80.33789062 119.10400391 C-76.90492968 120.78014118 -73.46582179 122.44326088 -70.02539062 124.10400391 C-69.04892578 124.58095703 -68.07246094 125.05791016 -67.06640625 125.54931641 C-66.12861328 126.00048828 -65.19082031 126.45166016 -64.22460938 126.91650391 C-63.36053467 127.33544922 -62.49645996 127.75439453 -61.60620117 128.18603516 C-59.28224248 129.29157273 -59.28224248 129.29157273 -56.33789062 129.10400391 C-48.15372442 112.34632614 -40.0338282 95.56965973 -32.23291016 78.62939453 C-25.79671184 64.69399226 -19.06396404 50.90122145 -12.33789062 37.10400391 C-15.37553152 35.47139561 -18.41867386 33.84931283 -21.46289062 32.22900391 C-22.31882813 31.76880859 -23.17476562 31.30861328 -24.05664062 30.83447266 C-28.40923784 28.52424798 -32.57415641 26.46283957 -37.33789062 25.10400391 C-37.60649902 25.96268066 -37.87510742 26.82135742 -38.15185547 27.70605469 C-39.33715373 31.10189273 -40.74417172 34.23667191 -42.31445312 37.47119141 C-42.60112854 38.0639537 -42.88780396 38.656716 -43.1831665 39.2674408 C-44.10608375 41.17309516 -45.03431392 43.07610176 -45.96289062 44.97900391 C-46.5973817 46.28578492 -47.2316584 47.59267004 -47.86572266 48.8996582 C-52.287529 58.00218631 -56.76108983 67.07832531 -61.33789062 76.10400391 C-63.33743809 76.14654747 -65.33830699 76.14481174 -67.33789062 76.10400391 C-67.66789063 75.77400391 -67.99789062 75.44400391 -68.33789062 75.10400391 C-68.13343672 67.56587715 -65.11106792 61.75870093 -61.77539062 55.10400391 C-61.25525391 54.04310547 -60.73511719 52.98220703 -60.19921875 51.88916016 C-58.92244598 49.28876057 -57.6331971 46.69519583 -56.33789062 44.10400391 C-69.03671113 41.37340263 -81.19345129 40.65742362 -94.15820312 40.70556641 C-96.11579496 40.70353813 -98.07338605 40.70062048 -100.03097534 40.6968689 C-104.10356955 40.69248303 -108.17596439 40.69875596 -112.24853516 40.71289062 C-117.42688381 40.73000307 -122.60476647 40.72010417 -127.78309822 40.70217323 C-131.81553563 40.69125299 -135.84786532 40.69481883 -139.88030624 40.70255661 C-141.7881768 40.70453474 -143.69605767 40.70218502 -145.60391617 40.69511795 C-171.08251568 40.62139177 -193.85989481 46.15310565 -212.65429688 64.42431641 C-213.53988281 65.30861328 -214.42546875 66.19291016 -215.33789062 67.10400391 C-216.00691406 67.76142578 -216.6759375 68.41884766 -217.36523438 69.09619141 C-233.06808602 85.68922738 -238.11451149 108.3177767 -237.64257812 130.45947266 C-236.76980475 151.7342253 -227.329399 171.98297926 -212.33789062 187.10400391 C-211.44972656 187.72404297 -210.5615625 188.34408203 -209.64648438 188.98291016 C-207.33789062 191.10400391 -207.33789062 191.10400391 -206.81445312 193.70556641 C-206.8634375 194.70330078 -206.91242188 195.70103516 -206.96289062 196.72900391 C-207.00800781 197.86595703 -207.053125 199.00291016 -207.09960938 200.17431641 C-207.17824219 201.47111328 -207.256875 202.76791016 -207.33789062 204.10400391 C-207.40891213 205.66380947 -207.4778294 207.2237119 -207.54492188 208.78369141 C-208.13632476 221.46941138 -208.13632476 221.46941138 -209.33789062 227.10400391 C-208.18401855 226.3315332 -208.18401855 226.3315332 -207.00683594 225.54345703 C-189.07225153 213.95753726 -173.96834167 208.42537966 -152.40039062 208.91650391 C-151.41502319 208.9380957 -150.42965576 208.9596875 -149.41442871 208.98193359 C-132.99399701 209.44789752 -132.99399701 209.44789752 -130.33789062 212.10400391 C-130.08789062 214.60400391 -130.08789062 214.60400391 -130.33789062 217.10400391 C-132.33789062 219.10400391 -132.33789062 219.10400391 -135.94433594 219.18481445 C-137.51845217 219.12579148 -139.09234455 219.06061531 -140.66601562 218.99072266 C-164.32650173 218.38492508 -181.39346463 220.63379284 -201.56933594 233.40234375 C-209.36532205 238.19405655 -209.36532205 238.19405655 -213.71289062 237.79150391 C-215.01226562 237.45119141 -215.01226562 237.45119141 -216.33789062 237.10400391 C-218.51895107 231.88444321 -218.40637108 227.78427005 -217.96289062 222.29150391 C-217.86036358 220.60153573 -217.7601523 218.91142566 -217.66210938 217.22119141 C-217.50756736 214.70952706 -217.34525078 212.19997719 -217.15283203 209.69091797 C-216.23305077 200.87816785 -216.23305077 200.87816785 -218.80664062 192.72509766 C-220.76228974 190.81141132 -220.76228974 190.81141132 -222.98632812 189.09619141 C-235.97298302 178.09420802 -244.18111474 157.66825338 -246.33789062 141.10400391 C-247.67634528 123.95263093 -247.83179759 106.27699812 -241.33789062 90.10400391 C-241.05913086 89.40968262 -240.78037109 88.71536133 -240.49316406 88 C-230.63908918 64.49972285 -211.69498333 46.99574696 -188.33789062 37.10400391 C-178.40151029 33.77420303 -169.18802075 31.95866134 -158.74682617 31.92700195 C-157.32343681 31.91714516 -157.32343681 31.91714516 -155.87129211 31.90708923 C-152.73906358 31.88742607 -149.60688301 31.87570481 -146.47460938 31.86572266 C-145.39807413 31.86164713 -144.32153889 31.8575716 -143.21238136 31.85337257 C-137.50641703 31.83253451 -131.80047653 31.81822694 -126.09448242 31.80883789 C-120.24227945 31.7978206 -114.39046164 31.76346825 -108.53839397 31.72366619 C-104.0040473 31.69732934 -99.46978971 31.68913067 -94.93537331 31.68555641 C-92.78072339 31.68072891 -90.6260764 31.66922672 -88.4715023 31.65051842 C-75.50043764 31.54495322 -63.80858289 32.40408009 -51.33789062 36.10400391 C-50.97566406 34.90259766 -50.6134375 33.70119141 -50.24023438 32.46337891 C-48.23981862 26.47034449 -45.53241889 20.84145617 -42.77709961 15.1640625 C-41.89718813 13.34739203 -41.03022129 11.52492074 -40.1640625 9.70166016 C-39.60396484 8.54021484 -39.04386719 7.37876953 -38.46679688 6.18212891 C-37.96220947 5.13444336 -37.45762207 4.08675781 -36.93774414 3.00732422 C-33.98246064 -2.35575091 -31.34779846 -5.61513368 -25.51367188 -7.43896484 C-16.31601644 -9.37096787 -7.74191954 -4.58320058 0 0 Z M-26.52539062 3.10400391 C-30.77321874 9.67680228 -30.77321874 9.67680228 -32.33789062 17.10400391 C-28.54924087 18.94362065 -24.75649287 20.77462462 -20.96289062 22.60400391 C-19.88265625 23.12865234 -18.80242187 23.65330078 -17.68945312 24.19384766 C-16.14257812 24.93828125 -16.14257812 24.93828125 -14.56445312 25.69775391 C-13.61135254 26.15859375 -12.65825195 26.61943359 -11.67626953 27.09423828 C-9.45638455 28.23615047 -9.45638455 28.23615047 -7.33789062 28.10400391 C-6.27211621 26.07481759 -5.23608876 24.0299885 -4.21289062 21.97900391 C-3.6328125 20.84205078 -3.05273438 19.70509766 -2.45507812 18.53369141 C-1.06052983 15.17054627 -1.06052983 15.17054627 -1.92382812 11.84228516 C-3.41320431 8.95816166 -4.29255235 7.96044075 -7.08789062 6.41650391 C-7.80332031 6.01689453 -8.51875 5.61728516 -9.25585938 5.20556641 C-9.94292969 4.84205078 -10.63 4.47853516 -11.33789062 4.10400391 C-12.34851563 3.50587891 -13.35914063 2.90775391 -14.40039062 2.29150391 C-18.97066218 0.44394732 -22.69148228 -0.40128373 -26.52539062 3.10400391 Z M-83.33789062 128.10400391 C-84.44017758 132.51315174 -84.41443598 136.58782792 -84.33789062 141.10400391 C-82.59494384 141.97247222 -80.843204 142.82331018 -79.08789062 143.66650391 C-78.11335937 144.14216797 -77.13882813 144.61783203 -76.13476562 145.10791016 C-73.15808838 146.16803962 -72.15964514 146.42082268 -69.33789062 145.10400391 C-67.36615709 143.49345528 -67.36615709 143.49345528 -65.58789062 141.54150391 C-64.97429687 140.90083984 -64.36070312 140.26017578 -63.72851562 139.60009766 C-63.26960938 139.10638672 -62.81070313 138.61267578 -62.33789062 138.10400391 C-65.89505976 135.1396963 -69.78839995 133.33181141 -73.96289062 131.41650391 C-74.64351562 131.09617188 -75.32414063 130.77583984 -76.02539062 130.44580078 C-79.53345172 128.70188475 -79.53345172 128.70188475 -83.33789062 128.10400391 Z M-85.33789062 150.10400391 C-85.33789062 153.07400391 -85.33789062 156.04400391 -85.33789062 159.10400391 C-83.29669274 157.48805558 -81.29716125 155.81836571 -79.33789062 154.10400391 C-79.33789062 153.44400391 -79.33789062 152.78400391 -79.33789062 152.10400391 C-81.31789062 151.44400391 -83.29789063 150.78400391 -85.33789062 150.10400391 Z " fill="#FCFCFC" transform="translate(246.337890625,12.89599609375)"/>
<path d="M0 0 C1.20774834 -0.00525696 1.20774834 -0.00525696 2.43989563 -0.01062012 C5.10389809 -0.01942941 7.76763542 -0.01359114 10.43164062 -0.00683594 C12.28104707 -0.00818282 14.13045317 -0.01012354 15.9798584 -0.01263428 C19.85688649 -0.01558445 23.73382246 -0.01129131 27.61083984 -0.00195312 C32.58442263 0.00944134 37.55778957 0.0028813 42.53136444 -0.00909805 C46.35058218 -0.01631952 50.16974862 -0.0140274 53.9889679 -0.00884247 C55.82302374 -0.00750677 57.65708421 -0.00915092 59.49113464 -0.01380157 C62.05280933 -0.0188715 64.61413277 -0.01115007 67.17578125 0 C67.93639359 -0.00404846 68.69700592 -0.00809692 69.48066711 -0.01226807 C73.22986747 0.01801736 74.88665973 0.12463513 78.08789062 2.25878906 C78.40039062 4.75878906 78.40039062 4.75878906 78.08789062 7.25878906 C75.53769519 9.8089845 73.88170328 9.50689441 70.40359497 9.54095459 C69.6097641 9.53847717 68.81593323 9.53599976 67.99804688 9.53344727 C67.16216034 9.5385582 66.3262738 9.54366913 65.46505737 9.54893494 C62.6934296 9.56287069 59.92204933 9.56187135 57.15039062 9.55957031 C55.22989814 9.56345474 53.30940651 9.56778888 51.38891602 9.57255554 C47.36048601 9.5800261 43.33214363 9.57972021 39.30371094 9.57446289 C34.13151901 9.56866378 28.95968465 9.58560586 23.78755188 9.60880756 C19.82082 9.6235106 15.85417495 9.62442136 11.88742065 9.62129784 C9.97996308 9.62181267 8.07250085 9.62708057 6.16506958 9.63710976 C3.50238524 9.64939216 0.8404067 9.64273252 -1.82226562 9.63110352 C-3.01301193 9.64256912 -3.01301193 9.64256912 -4.22781372 9.65426636 C-6.42016602 9.63301086 -6.42016602 9.63301086 -9.91210938 9.25878906 C-11.91210938 6.25878906 -11.91210938 6.25878906 -11.72460938 4.19628906 C-9.59995409 -0.87019661 -4.63201089 -0.0246545 0 0 Z " fill="#FCFCFC" transform="translate(64.912109375,146.7412109375)"/>
<path d="M0 0 C1.2125219 0.00303635 1.2125219 0.00303635 2.44953918 0.00613403 C3.29663956 0.00438171 4.14373993 0.00262939 5.01651001 0.00082397 C7.83079547 -0.00359553 10.64501865 -0.00065621 13.45930481 0.00271606 C15.40604159 0.00204305 17.35277828 0.00107305 19.29951477 -0.00018311 C23.38517556 -0.00166021 27.47081452 0.00049489 31.55647278 0.00515747 C36.80601996 0.01085476 42.05551603 0.00757583 47.30506134 0.00158501 C51.32663868 -0.00202026 55.3482038 -0.00088218 59.36978149 0.0017128 C61.3059693 0.00238216 63.2421582 0.00155332 65.17834473 -0.00076675 C67.87945005 -0.00329272 70.5804714 0.00054652 73.28157043 0.00613403 C74.08991837 0.0041098 74.8982663 0.00208557 75.73110962 0 C81.25129233 0.02126609 81.25129233 0.02126609 82.36555481 1.13552856 C82.49055481 4.13552856 82.49055481 4.13552856 82.36555481 7.13552856 C80.57060501 8.93047837 78.13278079 8.26820866 75.74221802 8.28216553 C74.93544113 8.28171234 74.12866425 8.28125916 73.29743958 8.28079224 C72.02919846 8.28583015 72.02919846 8.28583015 70.7353363 8.29096985 C67.92586316 8.30050939 65.11644942 8.30242445 62.30696106 8.30349731 C60.36261978 8.30670779 58.41827875 8.31007169 56.47393799 8.31358337 C52.39247579 8.31958215 48.31103478 8.32142251 44.22956848 8.3208313 C38.98904973 8.32072963 33.74866632 8.33438359 28.50817966 8.35160351 C24.4908485 8.36269958 20.4735503 8.36475125 16.45620537 8.36422157 C14.52363048 8.36540524 12.59105484 8.36984853 10.65849495 8.37755394 C7.9599206 8.38730581 5.26164328 8.38449494 2.56306458 8.37844849 C1.75831192 8.38406799 0.95355927 8.3896875 0.12442017 8.39547729 C-5.40612977 8.36384399 -5.40612977 8.36384399 -7.63444519 6.13552856 C-6.90193757 0.12896607 -5.90151812 0.02273515 0 0 Z " fill="#FCFCFC" transform="translate(60.63444519042969,120.86447143554688)"/>
<path d="M0 0 C1.07458969 -0.00637985 2.14917938 -0.0127597 3.2563324 -0.01933289 C4.42608109 -0.02044571 5.59582977 -0.02155853 6.80102539 -0.02270508 C7.99345352 -0.02603348 9.18588165 -0.02936188 10.41444397 -0.03279114 C12.94230767 -0.03786549 15.47017809 -0.04019931 17.99804688 -0.04003906 C21.87844818 -0.04222493 25.7585651 -0.06037389 29.63891602 -0.0793457 C32.08878483 -0.08227956 34.538655 -0.08426441 36.98852539 -0.08520508 C38.74011208 -0.09598335 38.74011208 -0.09598335 40.52708435 -0.10697937 C42.14369713 -0.10236443 42.14369713 -0.10236443 43.79296875 -0.09765625 C45.22073891 -0.09979378 45.22073891 -0.09979378 46.67735291 -0.10197449 C48.96118164 0.14526367 48.96118164 0.14526367 50.96118164 2.14526367 C50.58618164 5.27026367 50.58618164 5.27026367 49.96118164 8.14526367 C42.16498576 8.19583991 34.36883194 8.23094481 26.57250977 8.25512695 C23.91852233 8.26520456 21.26454604 8.2788668 18.6105957 8.29614258 C14.80295057 8.32031359 10.9954518 8.33172902 7.18774414 8.34057617 C5.3986412 8.35606003 5.3986412 8.35606003 3.57339478 8.37185669 C1.92190933 8.37208328 1.92190933 8.37208328 0.23706055 8.37231445 C-1.22188126 8.37897629 -1.22188126 8.37897629 -2.71029663 8.38577271 C-5.03881836 8.14526367 -5.03881836 8.14526367 -7.03881836 6.14526367 C-6.3440221 0.44793437 -5.55687842 0.02227188 0 0 Z " fill="#FCFCFC" transform="translate(60.038818359375,93.854736328125)"/>
</svg>
