<?xml version="1.0" encoding="UTF-8"?>
<svg version="1.1" xmlns="http://www.w3.org/2000/svg" width="256" height="256">
<path d="M0 0 C1.0588163 -0.00744736 1.0588163 -0.00744736 2.13902283 -0.01504517 C4.4789222 -0.0296744 6.81875378 -0.03647002 9.15869141 -0.04199219 C10.78292849 -0.04774302 12.40716555 -0.05350076 14.03140259 -0.05926514 C17.43939531 -0.06977729 20.84736443 -0.07561855 24.25537109 -0.07910156 C28.62248338 -0.08458674 32.98928394 -0.10861415 37.35629845 -0.13707352 C40.71232006 -0.15569659 44.06826655 -0.16090531 47.42433548 -0.16243744 C49.03429494 -0.16546527 50.64425303 -0.1734982 52.25416183 -0.18662262 C54.50692207 -0.20367665 56.75892016 -0.20180485 59.01171875 -0.1953125 C60.29364105 -0.19895813 61.57556335 -0.20260376 62.89633179 -0.20635986 C66.428834 0.19444282 67.87647485 0.40972006 70.13525391 3.16113281 C70.53369645 5.72556613 70.67263955 7.86540106 70.63696289 10.43066406 C70.64506737 11.53599991 70.64506737 11.53599991 70.65333557 12.66366577 C70.66584828 15.1007294 70.64931619 17.53661744 70.63134766 19.97363281 C70.63150259 21.66609764 70.63299057 23.35856282 70.63575745 25.05102539 C70.63714257 28.59862953 70.62456476 32.14582994 70.60180664 35.69335938 C70.57342143 40.24333557 70.57615769 44.79264078 70.58889675 49.34266663 C70.595848 52.83766421 70.58807105 56.33250639 70.57563972 59.82748413 C70.57111981 61.50523279 70.57079314 63.1829981 70.57470512 64.86074829 C70.57761198 67.20471457 70.56113678 69.54775252 70.53930664 71.89160156 C70.54605911 72.93433731 70.54605911 72.93433731 70.552948 73.99813843 C70.50938186 76.80998166 70.42775599 78.72883794 68.82875061 81.09204102 C65.95330918 82.90728567 63.42225614 82.51331162 60.13525391 82.16113281 C58.44352722 80.96305847 58.44352722 80.96305847 57.13525391 79.16113281 C56.73652649 76.7882843 56.73652649 76.7882843 56.70288086 73.95532227 C56.6830867 72.89444901 56.66329254 71.83357574 56.64289856 70.74055481 C56.63331367 69.02481514 56.63331367 69.02481514 56.62353516 67.27441406 C56.60558395 66.10226852 56.58763275 64.93012299 56.56913757 63.72245789 C56.51488736 59.9728863 56.48109088 56.22344307 56.44775391 52.47363281 C56.41459392 49.93390135 56.38010551 47.39418686 56.34423828 44.85449219 C56.25915237 38.62348749 56.19086482 32.39246648 56.13525391 26.16113281 C55.76632019 26.58803406 55.39738647 27.0149353 55.01727295 27.45477295 C53.32284437 29.41472106 51.62749341 31.37386924 49.93212891 33.33300781 C49.35188965 34.00444824 48.77165039 34.67588867 48.17382812 35.36767578 C44.95282765 39.08840835 41.70322252 42.77605687 38.38525391 46.41113281 C35.39662138 49.70406247 32.55141785 53.0743005 29.76025391 56.53613281 C26.07888702 61.08973994 22.20750918 65.39695798 18.22167969 69.68017578 C15.23112749 72.91289485 12.39753705 76.22800947 9.63525391 79.66113281 C5.99832008 84.181322 2.16436588 88.44426068 -1.78540039 92.68725586 C-4.71624408 95.85464703 -7.48502255 99.10210982 -10.17724609 102.47363281 C-14.02048187 107.20483643 -17.97922658 111.81481863 -22.05224609 116.34863281 C-22.63466064 117.02128174 -23.2170752 117.69393066 -23.81713867 118.38696289 C-26.3941776 121.21044699 -28.07844824 122.9291277 -31.79052734 124.02441406 C-36.56695 122.68313146 -39.39340809 119.59815776 -42.86474609 116.16113281 C-43.5326416 115.51805176 -44.20053711 114.8749707 -44.88867188 114.21240234 C-46.92284819 112.23650056 -48.9278413 110.23467333 -50.92724609 108.22363281 C-51.595625 107.55912109 -52.26400391 106.89460938 -52.95263672 106.20996094 C-56.09366111 103.06283154 -59.13811205 99.88676719 -62.02099609 96.50097656 C-67.43330926 90.22871294 -73.42690417 84.49426339 -79.30224609 78.66113281 C-80.523183 77.44522168 -81.74388802 76.22907766 -82.96435547 75.01269531 C-85.92848623 72.05948316 -88.89573568 69.10943883 -91.86474609 66.16113281 C-102.58408505 70.94176232 -111.37236621 82.60644527 -119.48660851 90.86065674 C-123.291222 94.72680402 -127.11176756 98.57718062 -130.92919922 102.43066406 C-135.76300334 107.31245596 -140.59202441 112.1987501 -145.40600586 117.10009766 C-149.32081675 121.08512553 -153.25009066 125.05536954 -157.18943214 129.0161438 C-158.6823729 130.52266073 -160.16988854 132.0345744 -161.65176964 133.55197144 C-163.7190959 135.66753648 -165.80436854 137.76371874 -167.89477539 139.85644531 C-168.49909897 140.48391159 -169.10342255 141.11137787 -169.72605896 141.75785828 C-173.57885613 145.56513219 -176.21848435 147.07799675 -181.86474609 147.16113281 C-184.30224609 146.22363281 -184.30224609 146.22363281 -185.86474609 144.16113281 C-186.55119861 140.02851827 -186.81060425 137.60235069 -184.47730064 134.04706192 C-182.38497428 131.68741327 -180.1939138 129.4899839 -177.92602539 127.29833984 C-177.08228363 126.45182358 -176.23854187 125.60530731 -175.36923218 124.73313904 C-173.05888013 122.42317985 -170.73175302 120.13193561 -168.39570975 117.8480134 C-165.95271265 115.45143101 -163.53208876 113.03245633 -161.10884094 110.61593628 C-157.03854134 106.56308745 -152.95410495 102.52498078 -148.85913086 98.49707031 C-143.08477734 92.81725154 -137.33610059 87.11198737 -131.59251153 81.40108323 C-123.4755163 73.33315682 -115.34632379 65.27740125 -107.19165039 57.24755859 C-106.38892197 56.45380325 -105.58619354 55.66004791 -104.75914001 54.84223938 C-104.02298462 54.11901993 -103.28682922 53.39580048 -102.52836609 52.65066528 C-101.88956355 52.0213315 -101.25076101 51.39199772 -100.59260082 50.74359322 C-98.13712621 48.49474019 -96.37305229 47.24020266 -93.05224609 46.72363281 C-87.31785033 47.51070674 -84.2689376 51.63245505 -80.69287109 55.82519531 C-76.83425439 60.2607589 -72.73152748 64.40440096 -68.55224609 68.53613281 C-67.77969482 69.30489746 -67.00714355 70.07366211 -66.21118164 70.86572266 C-63.76480428 73.29999046 -61.31520469 75.73097387 -58.86474609 78.16113281 C-55.63260921 81.36649459 -52.40392075 84.57527354 -49.17724609 87.78613281 C-48.08319458 88.86773682 -48.08319458 88.86773682 -46.96704102 89.97119141 C-42.8612895 94.05750236 -38.9915766 98.24003669 -35.29907227 102.70556641 C-34.82574463 103.18590332 -34.35241699 103.66624023 -33.86474609 104.16113281 C-31.46625007 104.39477965 -31.46625007 104.39477965 -29.14208984 101.48535156 C-28.02234367 100.27908109 -26.90949396 99.06638571 -25.80224609 97.84863281 C-25.21588379 97.21070801 -24.62952148 96.5727832 -24.02539062 95.91552734 C-19.87805448 91.36811931 -15.95354754 86.67681521 -12.10693359 81.87207031 C-9.6256798 78.8720875 -7.01608654 76.00961251 -4.36474609 73.16113281 C-0.89053273 69.42788248 2.43594317 65.63741902 5.63525391 61.66113281 C9.2702478 57.14335469 13.10235681 52.88294765 17.04931641 48.64160156 C20.03966748 45.40901534 22.8731172 42.09407415 25.63525391 38.66113281 C29.73825693 33.56189704 34.09441843 28.76775913 38.55712891 23.98535156 C40.35882358 22.01167694 42.09418885 20.03951667 43.79638672 17.98461914 C44.56821289 17.05286865 45.34003906 16.12111816 46.13525391 15.16113281 C45.46539963 15.15526657 44.79554535 15.14940033 44.10539246 15.14335632 C37.14623358 15.07952301 30.18754149 14.99512954 23.22875977 14.89868164 C20.63018947 14.86538538 18.03154604 14.83736827 15.43286133 14.81469727 C11.70183072 14.7812383 7.9714733 14.72892552 4.24072266 14.67285156 C3.07502243 14.66646164 1.9093222 14.66007172 0.70829773 14.65348816 C-0.37259628 14.633694 -1.4534903 14.61389984 -2.56713867 14.59350586 C-3.51978104 14.5824028 -4.4724234 14.57129974 -5.45393372 14.55986023 C-8.28665719 14.09135238 -9.15607532 13.42534691 -10.86474609 11.16113281 C-11.73974609 8.78613281 -11.73974609 8.78613281 -11.86474609 6.16113281 C-8.92505873 0.00178786 -6.53468279 0.03484945 0 0 Z " fill="#FFFFFF" transform="translate(185.86474609375,38.8388671875)"/>
<path d="M0 0 C1.30630777 -0.01265991 1.30630777 -0.01265991 2.6390056 -0.02557558 C3.59638472 -0.01956553 4.55376385 -0.01355549 5.54015446 -0.00736332 C6.55670001 -0.01274886 7.57324556 -0.01813439 8.62059551 -0.02368313 C12.04312711 -0.03804512 15.46527642 -0.03083861 18.88782597 -0.023736 C21.33495236 -0.02943525 23.78207609 -0.03639777 26.22919559 -0.04453373 C32.1959096 -0.06065846 38.16247216 -0.06255579 44.12919312 -0.05732083 C48.97797357 -0.05328316 53.82672287 -0.05471787 58.67550182 -0.06006908 C59.36500541 -0.06081751 60.054509 -0.06156593 60.76490663 -0.06233703 C62.16553211 -0.06386847 63.56615759 -0.06540682 64.96678305 -0.066952 C78.1086783 -0.08068753 91.25051406 -0.07523202 104.39240796 -0.06376678 C116.42054663 -0.05383374 128.44853148 -0.06677436 140.47664642 -0.09070098 C152.82103221 -0.1150721 165.1653463 -0.12470473 177.50975567 -0.11804825 C184.44264769 -0.11455153 191.37542138 -0.11681777 198.30829525 -0.13429928 C204.82620767 -0.15053025 211.34387344 -0.1458706 217.86179447 -0.12699413 C220.25798897 -0.12329383 222.65420506 -0.12645834 225.05037975 -0.13687992 C228.31375443 -0.14999266 231.57613965 -0.1386281 234.83947086 -0.12088871 C235.79461926 -0.13049372 236.74976766 -0.14009872 237.73385996 -0.14999479 C244.08863461 -0.07859346 244.08863461 -0.07859346 247.37291908 2.18898582 C248.75330448 4.38031673 248.75330448 4.38031673 248.75330448 7.94281673 C247.75330448 11.38031673 247.75330448 11.38031673 246.30525303 13.07135105 C242.29153248 15.13010042 238.36933048 14.79270519 233.92212772 14.76126766 C232.91289485 14.76594763 231.90366199 14.77062761 230.8638463 14.7754494 C227.47204882 14.78744371 224.08065206 14.77792465 220.68885136 14.76850033 C218.26128242 14.77256405 215.83371534 14.7779048 213.40615177 14.7844305 C207.49105626 14.7967095 201.57606535 14.79488528 195.66097271 14.78619258 C190.85417024 14.77942071 186.04739978 14.77849716 181.24059391 14.78176403 C180.55677654 14.78222373 179.87295916 14.78268343 179.16842005 14.78315706 C177.7793101 14.78411622 176.39020016 14.78508886 175.00109023 14.78607483 C161.97173303 14.79463192 148.94243913 14.78478961 135.91309232 14.76867373 C124.73040347 14.75527025 113.54780805 14.75759825 102.36512089 14.77143002 C89.38277062 14.78748022 76.40047585 14.79380792 63.41811705 14.78459322 C62.03408306 14.78363756 60.65004906 14.78269445 59.26601505 14.78176403 C58.58502262 14.7813012 57.90403018 14.78083838 57.20240161 14.78036153 C52.4007064 14.77776995 47.59904636 14.78214623 42.79735661 14.78920269 C36.33609353 14.79848919 29.87496557 14.79188886 23.41371822 14.77451992 C21.03848852 14.77054382 18.663244 14.77170821 16.28802013 14.77830791 C13.0533043 14.78646896 9.81916034 14.77626738 6.58448124 14.76126766 C5.16445466 14.77130591 5.16445466 14.77130591 3.71574068 14.78154695 C-2.6130425 14.72436734 -2.6130425 14.72436734 -5.83013821 12.97760105 C-7.58779405 10.99570022 -7.75877565 10.00553731 -7.68419552 7.38031673 C-7.68290646 6.69969173 -7.68161739 6.01906673 -7.68028927 5.31781673 C-6.73144708 1.07794532 -4.05628591 0.00554305 0 0 Z " fill="#FFFFFF" transform="translate(7.246695518493652,202.61968326568604)"/>
</svg>
